{"title":"Open.Season.Scared.Silly.2015.BRRip.480p.x264.AAC-VYTO [P2PDL]","uid":13705301,"size":322270955,"categoryP":"video","categoryS":"movies","magnet":"?xt=urn:btih:c4b7e61b3c2d1ae009f6b5b1e600ea7666a8461e&amp;dn=Open.Season.Scared.Silly.2015.BRRip.480p.x264.AAC-VYTO+%5BP2PDL%5D&amp;tr=udp%3A%2F%2Ftracker.leechers-paradise.org%3A6969&amp;tr=udp%3A%2F%2Fzer0day.ch%3A1337&amp;tr=udp%3A%2F%2Fopen.demonii.com%3A1337&amp;tr=udp%3A%2F%2Ftracker.coppersurfer.tk%3A6969&amp;tr=udp%3A%2F%2Fexodus.desync.com%3A6969","seeders":0,"leechers":1,"uploader":"VYTOP2PDL","files":7,"time":1456821128,"description":"Open.Season.Scared.Silly.2015.BRRip.480p.x264.AAC-VYTO\r\n\r\n\r\nGenre: Animation, Adventure, Comedy  \nhttp://www.imdb.com/title/tt4938374/\r\n\r\n\r\nFormat                                   : MPEG-4\r\nFile size                                : 301 MiB\r\nDuration                                 : 1h 24mn\r\nOverall bit rate                         : 497 Kbps\r\n\r\nVideo\r\nFormat                                   : AVC\r\nBit rate                                 : 462 Kbps\r\nWidth                                    : 720 pixels\r\nHeight                                   : 400 pixels\r\nDisplay aspect ratio                     : 16:9\r\nFrame rate mode                          : Constant\r\nFrame rate                               : 23.976 fps\r\nStream size                              : 280 MiB (93%)\r\nWriting library                          : x264 \r\n\r\nAudio\r\nFormat                                   : AAC\r\nBit rate mode                            : Variable\r\nBit rate                                 : 32.0 Kbps\r\nChannel(s)                               : 2 channels \r\nChannel positions                        : Front: L R \r\nSampling rate                            : 48.0 KHz\r\nStream size                              : 19.4 MiB (6%)\r\nLanguage                                 : English\r\n\r\nSubtitle                                 : Yes (English)\r\n\r\nScreen Shot: (Click to view)\r\n \nhttp://ititli.com/Xnc \nhttp://ititli.com/Xni \nhttp://ititli.com/Xnp \nhttp://ititli.com/XnD \nhttp://ititli.com/Xna \nhttp://ititli.com/Xnb \nhttp://ititli.com/Xnz \nhttp://ititli.com/XnI \nhttp://ititli.com/XnO\r\n\r\n----------------------------------------------------------------------------------------------------\r\n\r\n\r\nEncoder Notes: Looking For Early Access To Anything You Can Provide WEBDL, DVDScr, DVDR, BluRay,\r\nDirect Audio, Music Releases and Seedboxes. If You Got anything to offer please contact us.\r\n\r\nSupport us by donating BC - 1FgwdzPsd1y25Gea8wP1qni35uGCtmkRCD\r\n\r\nSend some love!\r\nFind us and join us!","torrent":{"xt":"urn:btih:c4b7e61b3c2d1ae009f6b5b1e600ea7666a8461e","amp;dn":"Open.Season.Scared.Silly.2015.BRRip.480p.x264.AAC-VYTO+%5BP2PDL%5D","amp;tr":["udp%3A%2F%2Ftracker.leechers-paradise.org%3A6969","udp%3A%2F%2Fzer0day.ch%3A1337","udp%3A%2F%2Fopen.demonii.com%3A1337","udp%3A%2F%2Ftracker.coppersurfer.tk%3A6969","udp%3A%2F%2Fexodus.desync.com%3A6969"],"infoHash":"c4b7e61b3c2d1ae009f6b5b1e600ea7666a8461e","infoHashBuffer":{"type":"Buffer","data":[196,183,230,27,60,45,26,224,9,246,181,177,230,0,234,118,102,168,70,30]},"announce":[],"urlList":[]}}